<svg width="17" height="16" viewBox="0 0 17 16" fill="none" xmlns="http://www.w3.org/2000/svg">
<path d="M15.1467 12.2202C15.1467 12.4602 15.0933 12.7068 14.98 12.9468C14.8667 13.1868 14.72 13.4135 14.5267 13.6268C14.2 13.9868 13.84 14.2468 13.4333 14.4135C13.0333 14.5802 12.6 14.6668 12.1333 14.6668C11.4533 14.6668 10.7267 14.5068 9.96001 14.1802C9.19334 13.8535 8.42668 13.4135 7.66668 12.8602C6.90001 12.3002 6.17334 11.6802 5.48001 10.9935C4.79334 10.3002 4.17334 9.5735 3.62001 8.8135C3.07334 8.0535 2.63334 7.2935 2.31334 6.54016C1.99334 5.78016 1.83334 5.0535 1.83334 4.36016C1.83334 3.90683 1.91334 3.4735 2.07334 3.0735C2.23334 2.66683 2.48668 2.2935 2.84001 1.96016C3.26668 1.54016 3.73334 1.3335 4.22668 1.3335C4.41334 1.3335 4.60001 1.3735 4.76668 1.4535C4.94001 1.5335 5.09334 1.6535 5.21334 1.82683L6.76001 4.00683C6.88001 4.1735 6.96668 4.32683 7.02668 4.4735C7.08668 4.6135 7.12001 4.7535 7.12001 4.88016C7.12001 5.04016 7.07334 5.20016 6.98001 5.3535C6.89334 5.50683 6.76668 5.66683 6.60668 5.82683L6.10001 6.3535C6.02668 6.42683 5.99334 6.5135 5.99334 6.62016C5.99334 6.6735 6.00001 6.72016 6.01334 6.7735C6.03334 6.82683 6.05334 6.86683 6.06668 6.90683C6.18668 7.12683 6.39334 7.4135 6.68668 7.76016C6.98668 8.10683 7.30668 8.46016 7.65334 8.8135C8.01334 9.16683 8.36001 9.4935 8.71334 9.7935C9.06001 10.0868 9.34668 10.2868 9.57334 10.4068C9.60668 10.4202 9.64668 10.4402 9.69334 10.4602C9.74668 10.4802 9.80001 10.4868 9.86001 10.4868C9.97334 10.4868 10.06 10.4468 10.1333 10.3735L10.64 9.8735C10.8067 9.70683 10.9667 9.58016 11.12 9.50016C11.2733 9.40683 11.4267 9.36016 11.5933 9.36016C11.72 9.36016 11.8533 9.38683 12 9.44683C12.1467 9.50683 12.3 9.5935 12.4667 9.70683L14.6733 11.2735C14.8467 11.3935 14.9667 11.5335 15.04 11.7002C15.1067 11.8668 15.1467 12.0335 15.1467 12.2202Z" stroke="#224D6F" stroke-width="1.5" stroke-miterlimit="10"/>
</svg>
